<svg xmlns="http://www.w3.org/2000/svg" width="904" height="142">
<rect width="100%" height="100%" fill="#0d1117" rx="4" />
<text x="452.0" y="15" text-anchor="middle" fill="#58a6ff" font-size="14" font-family="sans-serif" font-weight="bold">🌱 Mambo's Garden</text>
<rect x="3" y="23" width="14" height="14" fill="#D1A880" rx="2" />
<rect x="3" y="40" width="14" height="14" fill="#D1A880" rx="2" />
<rect x="3" y="57" width="14" height="14" fill="#D1A880" rx="2" />
<rect x="3" y="74" width="14" height="14" fill="#D1A880" rx="2" />
<rect x="3" y="91" width="14" height="14" fill="#D1A880" rx="2" />
<rect x="3" y="108" width="14" height="14" fill="#D1A880" rx="2" />
<rect x="3" y="125" width="14" height="14" fill="#D1A880" rx="2" />
<rect x="20" y="23" width="14" height="14" fill="#D1A880" rx="2" />
<rect x="20" y="40" width="14" height="14" fill="#D1A880" rx="2" />
<rect x="20" y="57" width="14" height="14" fill="#D1A880" rx="2" />
<rect x="20" y="74" width="14" height="14" fill="#D1A880" rx="2" />
<rect x="20" y="91" width="14" height="14" fill="#D1A880" rx="2" />
<rect x="20" y="108" width="14" height="14" fill="#D1A880" rx="2" />
<rect x="20" y="125" width="14" height="14" fill="#D1A880" rx="2" />
<rect x="37" y="23" width="14" height="14" fill="#D1A880" rx="2" />
<rect x="37" y="40" width="14" height="14" fill="#D1A880" rx="2" />
<rect x="37" y="57" width="14" height="14" fill="#D1A880" rx="2" />
<rect x="37" y="74" width="14" height="14" fill="#D1A880" rx="2" />
<rect x="37" y="91" width="14" height="14" fill="#D1A880" rx="2" />
<rect x="37" y="108" width="14" height="14" fill="#D1A880" rx="2" />
<rect x="37" y="125" width="14" height="14" fill="#D1A880" rx="2" />
<rect x="54" y="23" width="14" height="14" fill="#D1A880" rx="2" />
<rect x="54" y="40" width="14" height="14" fill="#D1A880" rx="2" />
<rect x="54" y="57" width="14" height="14" fill="#D1A880" rx="2" />
<rect x="54" y="74" width="14" height="14" fill="#D1A880" rx="2" />
<rect x="54" y="91" width="14" height="14" fill="#D1A880" rx="2" />
<rect x="54" y="108" width="14" height="14" fill="#D1A880" rx="2" />
<rect x="54" y="125" width="14" height="14" fill="#D1A880" rx="2" />
<rect x="71" y="23" width="14" height="14" fill="#D1A880" rx="2" />
<rect x="71" y="40" width="14" height="14" fill="#D1A880" rx="2" />
<rect x="71" y="57" width="14" height="14" fill="#D1A880" rx="2" />
<rect x="71" y="74" width="14" height="14" fill="#D1A880" rx="2" />
<rect x="71" y="91" width="14" height="14" fill="#D1A880" rx="2" />
<rect x="71" y="108" width="14" height="14" fill="#D1A880" rx="2" />
<rect x="71" y="125" width="14" height="14" fill="#D1A880" rx="2" />
<rect x="88" y="23" width="14" height="14" fill="#D1A880" rx="2" />
<rect x="88" y="40" width="14" height="14" fill="#D1A880" rx="2" />
<rect x="88" y="57" width="14" height="14" fill="#D1A880" rx="2" />
<rect x="88" y="74" width="14" height="14" fill="#D1A880" rx="2" />
<rect x="88" y="91" width="14" height="14" fill="#D1A880" rx="2" />
<rect x="88" y="108" width="14" height="14" fill="#D1A880" rx="2" />
<rect x="88" y="125" width="14" height="14" fill="#D1A880" rx="2" />
<rect x="105" y="23" width="14" height="14" fill="#D1A880" rx="2" />
<rect x="105" y="40" width="14" height="14" fill="#D1A880" rx="2" />
<rect x="105" y="57" width="14" height="14" fill="#D1A880" rx="2" />
<rect x="105" y="74" width="14" height="14" fill="#D1A880" rx="2" />
<rect x="105" y="91" width="14" height="14" fill="#D1A880" rx="2" />
<rect x="105" y="108" width="14" height="14" fill="#D1A880" rx="2" />
<rect x="105" y="125" width="14" height="14" fill="#D1A880" rx="2" />
<rect x="122" y="23" width="14" height="14" fill="#D1A880" rx="2" />
<rect x="122" y="40" width="14" height="14" fill="#D1A880" rx="2" />
<rect x="122" y="57" width="14" height="14" fill="#D1A880" rx="2" />
<rect x="122" y="74" width="14" height="14" fill="#D1A880" rx="2" />
<rect x="122" y="91" width="14" height="14" fill="#D1A880" rx="2" />
<rect x="122" y="108" width="14" height="14" fill="#D1A880" rx="2" />
<rect x="122" y="125" width="14" height="14" fill="#D1A880" rx="2" />
<rect x="139" y="23" width="14" height="14" fill="#D1A880" rx="2" />
<rect x="139" y="40" width="14" height="14" fill="#D1A880" rx="2" />
<rect x="139" y="57" width="14" height="14" fill="#D1A880" rx="2" />
<rect x="139" y="74" width="14" height="14" fill="#D1A880" rx="2" />
<rect x="139" y="91" width="14" height="14" fill="#D1A880" rx="2" />
<rect x="139" y="108" width="14" height="14" fill="#D1A880" rx="2" />
<rect x="139" y="125" width="14" height="14" fill="#D1A880" rx="2" />
<rect x="156" y="23" width="14" height="14" fill="#D1A880" rx="2" />
<rect x="156" y="40" width="14" height="14" fill="#D1A880" rx="2" />
<rect x="156" y="57" width="14" height="14" fill="#D1A880" rx="2" />
<rect x="156" y="74" width="14" height="14" fill="#D1A880" rx="2" />
<rect x="156" y="91" width="14" height="14" fill="#D1A880" rx="2" />
<rect x="156" y="108" width="14" height="14" fill="#D1A880" rx="2" />
<rect x="156" y="125" width="14" height="14" fill="#D1A880" rx="2" />
<rect x="173" y="23" width="14" height="14" fill="#D1A880" rx="2" />
<rect x="173" y="40" width="14" height="14" fill="#D1A880" rx="2" />
<rect x="173" y="57" width="14" height="14" fill="#D1A880" rx="2" />
<rect x="173" y="74" width="14" height="14" fill="#D1A880" rx="2" />
<rect x="173" y="91" width="14" height="14" fill="#D1A880" rx="2" />
<rect x="173" y="108" width="14" height="14" fill="#D1A880" rx="2" />
<rect x="173" y="125" width="14" height="14" fill="#D1A880" rx="2" />
<rect x="190" y="23" width="14" height="14" fill="#D1A880" rx="2" />
<rect x="190" y="40" width="14" height="14" fill="#D1A880" rx="2" />
<rect x="190" y="57" width="14" height="14" fill="#D1A880" rx="2" />
<rect x="190" y="74" width="14" height="14" fill="#D1A880" rx="2" />
<rect x="190" y="91" width="14" height="14" fill="#D1A880" rx="2" />
<rect x="190" y="108" width="14" height="14" fill="#D1A880" rx="2" />
<rect x="190" y="125" width="14" height="14" fill="#D1A880" rx="2" />
<rect x="207" y="23" width="14" height="14" fill="#D1A880" rx="2" />
<rect x="207" y="40" width="14" height="14" fill="#D1A880" rx="2" />
<rect x="207" y="57" width="14" height="14" fill="#D1A880" rx="2" />
<rect x="207" y="74" width="14" height="14" fill="#D1A880" rx="2" />
<rect x="207" y="91" width="14" height="14" fill="#D1A880" rx="2" />
<rect x="207" y="108" width="14" height="14" fill="#D1A880" rx="2" />
<rect x="207" y="125" width="14" height="14" fill="#D1A880" rx="2" />
<rect x="224" y="23" width="14" height="14" fill="#D1A880" rx="2" />
<rect x="224" y="40" width="14" height="14" fill="#D1A880" rx="2" />
<rect x="224" y="57" width="14" height="14" fill="#D1A880" rx="2" />
<rect x="224" y="74" width="14" height="14" fill="#D1A880" rx="2" />
<rect x="224" y="91" width="14" height="14" fill="#D1A880" rx="2" />
<rect x="224" y="108" width="14" height="14" fill="#D1A880" rx="2" />
<rect x="224" y="125" width="14" height="14" fill="#D1A880" rx="2" />
<rect x="241" y="23" width="14" height="14" fill="#D1A880" rx="2" />
<rect x="241" y="40" width="14" height="14" fill="#D1A880" rx="2" />
<rect x="241" y="57" width="14" height="14" fill="#D1A880" rx="2" />
<rect x="241" y="74" width="14" height="14" fill="#D1A880" rx="2" />
<rect x="241" y="91" width="14" height="14" fill="#D1A880" rx="2" />
<rect x="241" y="108" width="14" height="14" fill="#D1A880" rx="2" />
<rect x="241" y="125" width="14" height="14" fill="#D1A880" rx="2" />
<rect x="258" y="23" width="14" height="14" fill="#D1A880" rx="2" />
<rect x="258" y="40" width="14" height="14" fill="#D1A880" rx="2" />
<rect x="258" y="57" width="14" height="14" fill="#D1A880" rx="2" />
<rect x="258" y="74" width="14" height="14" fill="#D1A880" rx="2" />
<rect x="258" y="91" width="14" height="14" fill="#D1A880" rx="2" />
<rect x="258" y="108" width="14" height="14" fill="#D1A880" rx="2" />
<rect x="258" y="125" width="14" height="14" fill="#D1A880" rx="2" />
<rect x="275" y="23" width="14" height="14" fill="#D1A880" rx="2" />
<rect x="275" y="40" width="14" height="14" fill="#D1A880" rx="2" />
<rect x="275" y="57" width="14" height="14" fill="#D1A880" rx="2" />
<rect x="275" y="74" width="14" height="14" fill="#D1A880" rx="2" />
<rect x="275" y="91" width="14" height="14" fill="#D1A880" rx="2" />
<rect x="275" y="108" width="14" height="14" fill="#D1A880" rx="2" />
<rect x="275" y="125" width="14" height="14" fill="#D1A880" rx="2" />
<rect x="292" y="23" width="14" height="14" fill="#D1A880" rx="2" />
<rect x="292" y="40" width="14" height="14" fill="#D1A880" rx="2" />
<rect x="292" y="57" width="14" height="14" fill="#D1A880" rx="2" />
<rect x="292" y="74" width="14" height="14" fill="#D1A880" rx="2" />
<rect x="292" y="91" width="14" height="14" fill="#D1A880" rx="2" />
<rect x="292" y="108" width="14" height="14" fill="#D1A880" rx="2" />
<rect x="292" y="125" width="14" height="14" fill="#D1A880" rx="2" />
<rect x="309" y="23" width="14" height="14" fill="#D1A880" rx="2" />
<rect x="309" y="40" width="14" height="14" fill="#D1A880" rx="2" />
<rect x="309" y="57" width="14" height="14" fill="#D1A880" rx="2" />
<rect x="309" y="74" width="14" height="14" fill="#D1A880" rx="2" />
<rect x="309" y="91" width="14" height="14" fill="#D1A880" rx="2" />
<rect x="309" y="108" width="14" height="14" fill="#D1A880" rx="2" />
<rect x="309" y="125" width="14" height="14" fill="#D1A880" rx="2" />
<rect x="326" y="23" width="14" height="14" fill="#D1A880" rx="2" />
<rect x="326" y="40" width="14" height="14" fill="#D1A880" rx="2" />
<rect x="326" y="57" width="14" height="14" fill="#D1A880" rx="2" />
<rect x="326" y="74" width="14" height="14" fill="#D1A880" rx="2" />
<rect x="326" y="91" width="14" height="14" fill="#D1A880" rx="2" />
<rect x="326" y="108" width="14" height="14" fill="#D1A880" rx="2" />
<rect x="326" y="125" width="14" height="14" fill="#D1A880" rx="2" />
<rect x="343" y="23" width="14" height="14" fill="#D1A880" rx="2" />
<rect x="343" y="40" width="14" height="14" fill="#D1A880" rx="2" />
<rect x="343" y="57" width="14" height="14" fill="#D1A880" rx="2" />
<rect x="343" y="74" width="14" height="14" fill="#D1A880" rx="2" />
<rect x="343" y="91" width="14" height="14" fill="#D1A880" rx="2" />
<rect x="343" y="108" width="14" height="14" fill="#D1A880" rx="2" />
<rect x="343" y="125" width="14" height="14" fill="#D1A880" rx="2" />
<rect x="360" y="23" width="14" height="14" fill="#D1A880" rx="2" />
<rect x="360" y="40" width="14" height="14" fill="#D1A880" rx="2" />
<rect x="360" y="57" width="14" height="14" fill="#D1A880" rx="2" />
<rect x="360" y="74" width="14" height="14" fill="#D1A880" rx="2" />
<rect x="360" y="91" width="14" height="14" fill="#D1A880" rx="2" />
<rect x="360" y="108" width="14" height="14" fill="#D1A880" rx="2" />
<rect x="360" y="125" width="14" height="14" fill="#D1A880" rx="2" />
<rect x="377" y="23" width="14" height="14" fill="#D1A880" rx="2" />
<rect x="377" y="40" width="14" height="14" fill="#D1A880" rx="2" />
<rect x="377" y="57" width="14" height="14" fill="#D1A880" rx="2" />
<rect x="377" y="74" width="14" height="14" fill="#D1A880" rx="2" />
<rect x="377" y="91" width="14" height="14" fill="#D1A880" rx="2" />
<rect x="377" y="108" width="14" height="14" fill="#D1A880" rx="2" />
<rect x="377" y="125" width="14" height="14" fill="#D1A880" rx="2" />
<rect x="394" y="23" width="14" height="14" fill="#D1A880" rx="2" />
<rect x="394" y="40" width="14" height="14" fill="#D1A880" rx="2" />
<rect x="394" y="57" width="14" height="14" fill="#D1A880" rx="2" />
<rect x="394" y="74" width="14" height="14" fill="#D1A880" rx="2" />
<rect x="394" y="91" width="14" height="14" fill="#D1A880" rx="2" />
<rect x="394" y="108" width="14" height="14" fill="#D1A880" rx="2" />
<rect x="394" y="125" width="14" height="14" fill="#D1A880" rx="2" />
<rect x="411" y="23" width="14" height="14" fill="#D1A880" rx="2" />
<rect x="411" y="40" width="14" height="14" fill="#D1A880" rx="2" />
<rect x="411" y="57" width="14" height="14" fill="#D1A880" rx="2" />
<rect x="411" y="74" width="14" height="14" fill="#D1A880" rx="2" />
<rect x="411" y="91" width="14" height="14" fill="#D1A880" rx="2" />
<rect x="411" y="108" width="14" height="14" fill="#D1A880" rx="2" />
<rect x="411" y="125" width="14" height="14" fill="#D1A880" rx="2" />
<rect x="428" y="23" width="14" height="14" fill="#D1A880" rx="2" />
<rect x="428" y="40" width="14" height="14" fill="#D1A880" rx="2" />
<rect x="428" y="57" width="14" height="14" fill="#D1A880" rx="2" />
<rect x="428" y="74" width="14" height="14" fill="#D1A880" rx="2" />
<rect x="428" y="91" width="14" height="14" fill="#D1A880" rx="2" />
<rect x="428" y="108" width="14" height="14" fill="#D1A880" rx="2" />
<rect x="428" y="125" width="14" height="14" fill="#D1A880" rx="2" />
<rect x="445" y="23" width="14" height="14" fill="#D1A880" rx="2" />
<rect x="445" y="40" width="14" height="14" fill="#D1A880" rx="2" />
<rect x="445" y="57" width="14" height="14" fill="#D1A880" rx="2" />
<rect x="445" y="74" width="14" height="14" fill="#D1A880" rx="2" />
<rect x="445" y="91" width="14" height="14" fill="#D1A880" rx="2" />
<rect x="445" y="108" width="14" height="14" fill="#D1A880" rx="2" />
<rect x="445" y="125" width="14" height="14" fill="#D1A880" rx="2" />
<rect x="462" y="23" width="14" height="14" fill="#D1A880" rx="2" />
<rect x="462" y="40" width="14" height="14" fill="#D1A880" rx="2" />
<rect x="462" y="57" width="14" height="14" fill="#D1A880" rx="2" />
<rect x="462" y="74" width="14" height="14" fill="#D1A880" rx="2" />
<rect x="462" y="91" width="14" height="14" fill="#D1A880" rx="2" />
<rect x="462" y="108" width="14" height="14" fill="#D1A880" rx="2" />
<rect x="462" y="125" width="14" height="14" fill="#D1A880" rx="2" />
<rect x="479" y="23" width="14" height="14" fill="#D1A880" rx="2" />
<rect x="479" y="40" width="14" height="14" fill="#D1A880" rx="2" />
<rect x="479" y="57" width="14" height="14" fill="#D1A880" rx="2" />
<rect x="479" y="74" width="14" height="14" fill="#D1A880" rx="2" />
<rect x="479" y="91" width="14" height="14" fill="#D1A880" rx="2" />
<rect x="479" y="108" width="14" height="14" fill="#D1A880" rx="2" />
<rect x="479" y="125" width="14" height="14" fill="#D1A880" rx="2" />
<rect x="496" y="23" width="14" height="14" fill="#D1A880" rx="2" />
<rect x="496" y="40" width="14" height="14" fill="#D1A880" rx="2" />
<rect x="496" y="57" width="14" height="14" fill="#D1A880" rx="2" />
<rect x="496" y="74" width="14" height="14" fill="#D1A880" rx="2" />
<rect x="496" y="91" width="14" height="14" fill="#D1A880" rx="2" />
<rect x="496" y="108" width="14" height="14" fill="#D1A880" rx="2" />
<rect x="496" y="125" width="14" height="14" fill="#D1A880" rx="2" />
<rect x="513" y="23" width="14" height="14" fill="#D1A880" rx="2" />
<rect x="513" y="40" width="14" height="14" fill="#D1A880" rx="2" />
<rect x="513" y="57" width="14" height="14" fill="#D1A880" rx="2" />
<rect x="513" y="74" width="14" height="14" fill="#D1A880" rx="2" />
<rect x="513" y="91" width="14" height="14" fill="#D1A880" rx="2" />
<rect x="513" y="108" width="14" height="14" fill="#D1A880" rx="2" />
<rect x="513" y="125" width="14" height="14" fill="#D1A880" rx="2" />
<rect x="530" y="23" width="14" height="14" fill="#D1A880" rx="2" />
<rect x="530" y="40" width="14" height="14" fill="#D1A880" rx="2" />
<rect x="530" y="57" width="14" height="14" fill="#D1A880" rx="2" />
<rect x="530" y="74" width="14" height="14" fill="#D1A880" rx="2" />
<rect x="530" y="91" width="14" height="14" fill="#D1A880" rx="2" />
<rect x="530" y="108" width="14" height="14" fill="#D1A880" rx="2" />
<rect x="530" y="125" width="14" height="14" fill="#D1A880" rx="2" />
<rect x="547" y="23" width="14" height="14" fill="#D1A880" rx="2" />
<rect x="547" y="40" width="14" height="14" fill="#D1A880" rx="2" />
<rect x="547" y="57" width="14" height="14" fill="#D1A880" rx="2" />
<rect x="547" y="74" width="14" height="14" fill="#D1A880" rx="2" />
<rect x="547" y="91" width="14" height="14" fill="#D1A880" rx="2" />
<rect x="547" y="108" width="14" height="14" fill="#D1A880" rx="2" />
<rect x="547" y="125" width="14" height="14" fill="#D1A880" rx="2" />
<rect x="564" y="23" width="14" height="14" fill="#D1A880" rx="2" />
<rect x="564" y="40" width="14" height="14" fill="#D1A880" rx="2" />
<rect x="564" y="57" width="14" height="14" fill="#D1A880" rx="2" />
<rect x="564" y="74" width="14" height="14" fill="#D1A880" rx="2" />
<rect x="564" y="91" width="14" height="14" fill="#D1A880" rx="2" />
<rect x="564" y="108" width="14" height="14" fill="#D1A880" rx="2" />
<rect x="564" y="125" width="14" height="14" fill="#D1A880" rx="2" />
<rect x="581" y="23" width="14" height="14" fill="#D1A880" rx="2" />
<rect x="581" y="40" width="14" height="14" fill="#D1A880" rx="2" />
<rect x="581" y="57" width="14" height="14" fill="#D1A880" rx="2" />
<rect x="581" y="74" width="14" height="14" fill="#D1A880" rx="2" />
<rect x="581" y="91" width="14" height="14" fill="#D1A880" rx="2" />
<rect x="581" y="108" width="14" height="14" fill="#D1A880" rx="2" />
<rect x="581" y="125" width="14" height="14" fill="#D1A880" rx="2" />
<rect x="598" y="23" width="14" height="14" fill="#D1A880" rx="2" />
<rect x="598" y="40" width="14" height="14" fill="#D1A880" rx="2" />
<rect x="598" y="57" width="14" height="14" fill="#D1A880" rx="2" />
<rect x="598" y="74" width="14" height="14" fill="#D1A880" rx="2" />
<rect x="598" y="91" width="14" height="14" fill="#D1A880" rx="2" />
<rect x="598" y="108" width="14" height="14" fill="#D1A880" rx="2" />
<rect x="598" y="125" width="14" height="14" fill="#D1A880" rx="2" />
<rect x="615" y="23" width="14" height="14" fill="#D1A880" rx="2" />
<rect x="615" y="40" width="14" height="14" fill="#D1A880" rx="2" />
<rect x="615" y="57" width="14" height="14" fill="#D1A880" rx="2" />
<rect x="615" y="74" width="14" height="14" fill="#D1A880" rx="2" />
<rect x="615" y="91" width="14" height="14" fill="#D1A880" rx="2" />
<rect x="615" y="108" width="14" height="14" fill="#D1A880" rx="2" />
<rect x="615" y="125" width="14" height="14" fill="#D1A880" rx="2" />
<rect x="632" y="23" width="14" height="14" fill="#D1A880" rx="2" />
<rect x="632" y="40" width="14" height="14" fill="#D1A880" rx="2" />
<rect x="632" y="57" width="14" height="14" fill="#D1A880" rx="2" />
<rect x="632" y="74" width="14" height="14" fill="#D1A880" rx="2" />
<rect x="632" y="91" width="14" height="14" fill="#D1A880" rx="2" />
<rect x="632" y="108" width="14" height="14" fill="#D1A880" rx="2" />
<rect x="632" y="125" width="14" height="14" fill="#D1A880" rx="2" />
<rect x="649" y="23" width="14" height="14" fill="#D1A880" rx="2" />
<rect x="649" y="40" width="14" height="14" fill="#D1A880" rx="2" />
<rect x="649" y="57" width="14" height="14" fill="#D1A880" rx="2" />
<rect x="649" y="74" width="14" height="14" fill="#D1A880" rx="2" />
<rect x="649" y="91" width="14" height="14" fill="#D1A880" rx="2" />
<rect x="649" y="108" width="14" height="14" fill="#D1A880" rx="2" />
<rect x="649" y="125" width="14" height="14" fill="#D1A880" rx="2" />
<rect x="666" y="23" width="14" height="14" fill="#D1A880" rx="2" />
<rect x="666" y="40" width="14" height="14" fill="#D1A880" rx="2" />
<rect x="666" y="57" width="14" height="14" fill="#D1A880" rx="2" />
<rect x="666" y="74" width="14" height="14" fill="#D1A880" rx="2" />
<rect x="666" y="91" width="14" height="14" fill="#D1A880" rx="2" />
<rect x="666" y="108" width="14" height="14" fill="#D1A880" rx="2" />
<text x="673.0" y="133.0" text-anchor="middle" dominant-baseline="middle" font-size="10" font-family="sans-serif">🌱</text>
<rect x="683" y="23" width="14" height="14" fill="#D1A880" rx="2" />
<text x="690.0" y="48.0" text-anchor="middle" dominant-baseline="middle" font-size="10" font-family="sans-serif">🌸</text>
<rect x="683" y="57" width="14" height="14" fill="#D1A880" rx="2" />
<rect x="683" y="74" width="14" height="14" fill="#D1A880" rx="2" />
<rect x="683" y="91" width="14" height="14" fill="#D1A880" rx="2" />
<rect x="683" y="108" width="14" height="14" fill="#D1A880" rx="2" />
<rect x="683" y="125" width="14" height="14" fill="#D1A880" rx="2" />
<text x="707.0" y="31.0" text-anchor="middle" dominant-baseline="middle" font-size="10" font-family="sans-serif">🌱</text>
<rect x="700" y="40" width="14" height="14" fill="#D1A880" rx="2" />
<rect x="700" y="57" width="14" height="14" fill="#D1A880" rx="2" />
<rect x="700" y="74" width="14" height="14" fill="#D1A880" rx="2" />
<rect x="700" y="91" width="14" height="14" fill="#D1A880" rx="2" />
<text x="707.0" y="116.0" text-anchor="middle" dominant-baseline="middle" font-size="10" font-family="sans-serif">🌸</text>
<text x="707.0" y="133.0" text-anchor="middle" dominant-baseline="middle" font-size="10" font-family="sans-serif">🌱</text>
<rect x="717" y="23" width="14" height="14" fill="#D1A880" rx="2" />
<rect x="717" y="40" width="14" height="14" fill="#D1A880" rx="2" />
<rect x="717" y="57" width="14" height="14" fill="#D1A880" rx="2" />
<rect x="717" y="74" width="14" height="14" fill="#D1A880" rx="2" />
<rect x="717" y="91" width="14" height="14" fill="#D1A880" rx="2" />
<rect x="717" y="108" width="14" height="14" fill="#D1A880" rx="2" />
<rect x="717" y="125" width="14" height="14" fill="#D1A880" rx="2" />
<rect x="734" y="23" width="14" height="14" fill="#D1A880" rx="2" />
<rect x="734" y="40" width="14" height="14" fill="#D1A880" rx="2" />
<rect x="734" y="57" width="14" height="14" fill="#D1A880" rx="2" />
<rect x="734" y="74" width="14" height="14" fill="#D1A880" rx="2" />
<rect x="734" y="91" width="14" height="14" fill="#D1A880" rx="2" />
<rect x="734" y="108" width="14" height="14" fill="#D1A880" rx="2" />
<rect x="734" y="125" width="14" height="14" fill="#D1A880" rx="2" />
<rect x="751" y="23" width="14" height="14" fill="#D1A880" rx="2" />
<rect x="751" y="40" width="14" height="14" fill="#D1A880" rx="2" />
<rect x="751" y="57" width="14" height="14" fill="#D1A880" rx="2" />
<rect x="751" y="74" width="14" height="14" fill="#D1A880" rx="2" />
<rect x="751" y="91" width="14" height="14" fill="#D1A880" rx="2" />
<rect x="751" y="108" width="14" height="14" fill="#D1A880" rx="2" />
<rect x="751" y="125" width="14" height="14" fill="#D1A880" rx="2" />
<rect x="768" y="23" width="14" height="14" fill="#D1A880" rx="2" />
<rect x="768" y="40" width="14" height="14" fill="#D1A880" rx="2" />
<text x="775.0" y="65.0" text-anchor="middle" dominant-baseline="middle" font-size="10" font-family="sans-serif">🌸</text>
<rect x="768" y="74" width="14" height="14" fill="#D1A880" rx="2" />
<rect x="768" y="91" width="14" height="14" fill="#D1A880" rx="2" />
<rect x="768" y="108" width="14" height="14" fill="#D1A880" rx="2" />
<rect x="768" y="125" width="14" height="14" fill="#D1A880" rx="2" />
<rect x="785" y="23" width="14" height="14" fill="#D1A880" rx="2" />
<text x="792.0" y="48.0" text-anchor="middle" dominant-baseline="middle" font-size="10" font-family="sans-serif">🌱</text>
<text x="792.0" y="65.0" text-anchor="middle" dominant-baseline="middle" font-size="10" font-family="sans-serif">🌸</text>
<rect x="785" y="74" width="14" height="14" fill="#D1A880" rx="2" />
<text x="792.0" y="99.0" text-anchor="middle" dominant-baseline="middle" font-size="10" font-family="sans-serif">🌱</text>
<rect x="785" y="108" width="14" height="14" fill="#D1A880" rx="2" />
<rect x="785" y="125" width="14" height="14" fill="#D1A880" rx="2" />
<text x="809.0" y="31.0" text-anchor="middle" dominant-baseline="middle" font-size="10" font-family="sans-serif">🌱</text>
<rect x="802" y="40" width="14" height="14" fill="#D1A880" rx="2" />
<rect x="802" y="57" width="14" height="14" fill="#D1A880" rx="2" />
<rect x="802" y="74" width="14" height="14" fill="#D1A880" rx="2" />
<rect x="802" y="91" width="14" height="14" fill="#D1A880" rx="2" />
<rect x="802" y="108" width="14" height="14" fill="#D1A880" rx="2" />
<rect x="802" y="125" width="14" height="14" fill="#D1A880" rx="2" />
<rect x="819" y="23" width="14" height="14" fill="#D1A880" rx="2" />
<rect x="819" y="40" width="14" height="14" fill="#D1A880" rx="2" />
<rect x="819" y="57" width="14" height="14" fill="#D1A880" rx="2" />
<rect x="819" y="74" width="14" height="14" fill="#D1A880" rx="2" />
<rect x="819" y="91" width="14" height="14" fill="#D1A880" rx="2" />
<rect x="819" y="108" width="14" height="14" fill="#D1A880" rx="2" />
<rect x="819" y="125" width="14" height="14" fill="#D1A880" rx="2" />
<rect x="836" y="23" width="14" height="14" fill="#D1A880" rx="2" />
<rect x="836" y="40" width="14" height="14" fill="#D1A880" rx="2" />
<rect x="836" y="57" width="14" height="14" fill="#D1A880" rx="2" />
<rect x="836" y="74" width="14" height="14" fill="#D1A880" rx="2" />
<rect x="836" y="91" width="14" height="14" fill="#D1A880" rx="2" />
<rect x="836" y="108" width="14" height="14" fill="#D1A880" rx="2" />
<rect x="836" y="125" width="14" height="14" fill="#D1A880" rx="2" />
<rect x="853" y="23" width="14" height="14" fill="#D1A880" rx="2" />
<rect x="853" y="40" width="14" height="14" fill="#D1A880" rx="2" />
<rect x="853" y="57" width="14" height="14" fill="#D1A880" rx="2" />
<rect x="853" y="74" width="14" height="14" fill="#D1A880" rx="2" />
<rect x="853" y="91" width="14" height="14" fill="#D1A880" rx="2" />
<rect x="853" y="108" width="14" height="14" fill="#D1A880" rx="2" />
<rect x="853" y="125" width="14" height="14" fill="#D1A880" rx="2" />
<rect x="870" y="23" width="14" height="14" fill="#D1A880" rx="2" />
<rect x="870" y="40" width="14" height="14" fill="#D1A880" rx="2" />
<rect x="870" y="57" width="14" height="14" fill="#D1A880" rx="2" />
<rect x="870" y="74" width="14" height="14" fill="#D1A880" rx="2" />
<rect x="870" y="91" width="14" height="14" fill="#D1A880" rx="2" />
<rect x="870" y="108" width="14" height="14" fill="#D1A880" rx="2" />
<rect x="870" y="125" width="14" height="14" fill="#D1A880" rx="2" />
<text x="894.0" y="31.0" text-anchor="middle" dominant-baseline="middle" font-size="10" font-family="sans-serif">🌱</text>
<text x="894.0" y="48.0" text-anchor="middle" dominant-baseline="middle" font-size="10" font-family="sans-serif">🌸</text>
<rect x="887" y="57" width="14" height="14" fill="#D1A880" rx="2" />
<rect x="887" y="74" width="14" height="14" fill="#D1A880" rx="2" />
<rect x="887" y="91" width="14" height="14" fill="#D1A880" rx="2" />
<rect x="887" y="108" width="14" height="14" fill="#D1A880" rx="2" />
<rect x="887" y="125" width="14" height="14" fill="#D1A880" rx="2" />
<g>
  <text x="0" y="0" font-size="12" text-anchor="middle">☁️</text>
  <g transform="translate(-5, 12)">
    <path d="M 0 0 L 0 6" stroke="#4facfe" stroke-width="1.5" stroke-linecap="round">
      <animate attributeName="stroke-opacity" values="0;1;0" dur="0.8s" repeatCount="indefinite" />
    </path>
    <path d="M 4 0 L 4 6" stroke="#4facfe" stroke-width="1.5" stroke-linecap="round">
      <animate attributeName="stroke-opacity" values="1;0;1" dur="1s" repeatCount="indefinite" />
    </path>
    <path d="M 8 0 L 8 6" stroke="#4facfe" stroke-width="1.5" stroke-linecap="round">
      <animate attributeName="stroke-opacity" values="0.5;1;0.5" dur="0.6s" repeatCount="indefinite" />
    </path>
  </g>
  <animateMotion dur="45s" repeatCount="indefinite" path="M 673.0,132.0 L 690.0,47.0 L 707.0,30.0 L 707.0,115.0 L 707.0,132.0 L 775.0,64.0 L 792.0,47.0 L 792.0,64.0 L 792.0,98.0 L 809.0,30.0 L 894.0,30.0 L 894.0,47.0" />
</g>
<text x="452.0" y="140" text-anchor="middle" fill="#6e7681" font-size="9" font-family="sans-serif">Generated by garden_gen.py</text>
</svg>