<svg xmlns="http://www.w3.org/2000/svg" width="904" height="142">
<rect width="100%" height="100%" fill="#0d1117" rx="4" />
<text x="452.0" y="15" text-anchor="middle" fill="#58a6ff" font-size="14" font-family="sans-serif" font-weight="bold">🌱 Mambo's Garden (Demo)</text>
<rect x="3" y="23" width="14" height="14" fill="#19654F" rx="2" />
<text x="10.0" y="48.0" text-anchor="middle" dominant-baseline="middle" font-size="12">🟫</text>
<text x="10.0" y="65.0" text-anchor="middle" dominant-baseline="middle" font-size="12">🟫</text>
<text x="10.0" y="82.0" text-anchor="middle" dominant-baseline="middle" font-size="12">🟫</text>
<text x="10.0" y="99.0" text-anchor="middle" dominant-baseline="middle" font-size="12">🟫</text>
<rect x="3" y="108" width="14" height="14" fill="#19654F" rx="2" />
<text x="10.0" y="133.0" text-anchor="middle" dominant-baseline="middle" font-size="12">🟫</text>
<text x="27.0" y="31.0" text-anchor="middle" dominant-baseline="middle" font-size="12">🟫</text>
<text x="27.0" y="48.0" text-anchor="middle" dominant-baseline="middle" font-size="12">🟫</text>
<text x="27.0" y="65.0" text-anchor="middle" dominant-baseline="middle" font-size="12">🟫</text>
<text x="27.0" y="82.0" text-anchor="middle" dominant-baseline="middle" font-size="12">🟫</text>
<text x="27.0" y="99.0" text-anchor="middle" dominant-baseline="middle" font-size="12">🟫</text>
<text x="27.0" y="116.0" text-anchor="middle" dominant-baseline="middle" font-size="12">🟫</text>
<text x="27.0" y="133.0" text-anchor="middle" dominant-baseline="middle" font-size="12">🟫</text>
<text x="44.0" y="31.0" text-anchor="middle" dominant-baseline="middle" font-size="12">🟫</text>
<text x="44.0" y="48.0" text-anchor="middle" dominant-baseline="middle" font-size="12">🟫</text>
<text x="44.0" y="65.0" text-anchor="middle" dominant-baseline="middle" font-size="12">🟫</text>
<text x="44.0" y="82.0" text-anchor="middle" dominant-baseline="middle" font-size="12">🟫</text>
<text x="44.0" y="99.0" text-anchor="middle" dominant-baseline="middle" font-size="12">🟫</text>
<text x="44.0" y="116.0" text-anchor="middle" dominant-baseline="middle" font-size="12">🟫</text>
<text x="44.0" y="133.0" text-anchor="middle" dominant-baseline="middle" font-size="12">🟫</text>
<text x="61.0" y="31.0" text-anchor="middle" dominant-baseline="middle" font-size="12">🟫</text>
<text x="61.0" y="48.0" text-anchor="middle" dominant-baseline="middle" font-size="12">🟫</text>
<text x="61.0" y="65.0" text-anchor="middle" dominant-baseline="middle" font-size="12">🟫</text>
<text x="61.0" y="82.0" text-anchor="middle" dominant-baseline="middle" font-size="12">🟫</text>
<text x="61.0" y="99.0" text-anchor="middle" dominant-baseline="middle" font-size="12">🟫</text>
<text x="61.0" y="116.0" text-anchor="middle" dominant-baseline="middle" font-size="12">🟫</text>
<rect x="54" y="125" width="14" height="14" fill="#19654F" rx="2" />
<text x="78.0" y="31.0" text-anchor="middle" dominant-baseline="middle" font-size="12">🟫</text>
<text x="78.0" y="48.0" text-anchor="middle" dominant-baseline="middle" font-size="12">🟫</text>
<text x="78.0" y="65.0" text-anchor="middle" dominant-baseline="middle" font-size="12">🟫</text>
<text x="78.0" y="82.0" text-anchor="middle" dominant-baseline="middle" font-size="12">🟫</text>
<text x="78.0" y="99.0" text-anchor="middle" dominant-baseline="middle" font-size="12">🟫</text>
<text x="78.0" y="116.0" text-anchor="middle" dominant-baseline="middle" font-size="12">🟫</text>
<text x="78.0" y="133.0" text-anchor="middle" dominant-baseline="middle" font-size="12">🟫</text>
<text x="95.0" y="31.0" text-anchor="middle" dominant-baseline="middle" font-size="12">🟫</text>
<text x="95.0" y="48.0" text-anchor="middle" dominant-baseline="middle" font-size="12">🟫</text>
<text x="95.0" y="65.0" text-anchor="middle" dominant-baseline="middle" font-size="12">🟫</text>
<text x="95.0" y="82.0" text-anchor="middle" dominant-baseline="middle" font-size="12">🟫</text>
<text x="95.0" y="99.0" text-anchor="middle" dominant-baseline="middle" font-size="12">🟫</text>
<text x="95.0" y="116.0" text-anchor="middle" dominant-baseline="middle" font-size="12">🟫</text>
<text x="95.0" y="133.0" text-anchor="middle" dominant-baseline="middle" font-size="12">🟫</text>
<text x="112.0" y="31.0" text-anchor="middle" dominant-baseline="middle" font-size="12">🟫</text>
<text x="112.0" y="48.0" text-anchor="middle" dominant-baseline="middle" font-size="12">🟫</text>
<rect x="105" y="57" width="14" height="14" fill="#0E4429" rx="2" />
<text x="112.0" y="82.0" text-anchor="middle" dominant-baseline="middle" font-size="12">🟫</text>
<text x="112.0" y="99.0" text-anchor="middle" dominant-baseline="middle" font-size="12">🟫</text>
<text x="112.0" y="116.0" text-anchor="middle" dominant-baseline="middle" font-size="12">🟫</text>
<text x="112.0" y="133.0" text-anchor="middle" dominant-baseline="middle" font-size="12">🟫</text>
<rect x="122" y="23" width="14" height="14" fill="#19654F" rx="2" />
<text x="129.0" y="48.0" text-anchor="middle" dominant-baseline="middle" font-size="12">🟫</text>
<rect x="122" y="57" width="14" height="14" fill="#19654F" rx="2" />
<rect x="122" y="74" width="14" height="14" fill="#19654F" rx="2" />
<text x="129.0" y="99.0" text-anchor="middle" dominant-baseline="middle" font-size="12">🟫</text>
<text x="129.0" y="116.0" text-anchor="middle" dominant-baseline="middle" font-size="12">🟫</text>
<rect x="122" y="125" width="14" height="14" fill="#19654F" rx="2" />
<text x="146.0" y="31.0" text-anchor="middle" dominant-baseline="middle" font-size="12">🟫</text>
<text x="146.0" y="48.0" text-anchor="middle" dominant-baseline="middle" font-size="12">🟫</text>
<text x="146.0" y="65.0" text-anchor="middle" dominant-baseline="middle" font-size="12">🟫</text>
<rect x="139" y="74" width="14" height="14" fill="#0E4429" rx="2" />
<text x="146.0" y="99.0" text-anchor="middle" dominant-baseline="middle" font-size="12">🟫</text>
<text x="146.0" y="116.0" text-anchor="middle" dominant-baseline="middle" font-size="12">🟫</text>
<rect x="139" y="125" width="14" height="14" fill="#0E4429" rx="2" />
<rect x="156" y="23" width="14" height="14" fill="#0E4429" rx="2" />
<rect x="156" y="40" width="14" height="14" fill="#19654F" rx="2" />
<text x="163.0" y="65.0" text-anchor="middle" dominant-baseline="middle" font-size="12">🟫</text>
<text x="163.0" y="82.0" text-anchor="middle" dominant-baseline="middle" font-size="12">🟫</text>
<text x="163.0" y="99.0" text-anchor="middle" dominant-baseline="middle" font-size="12">🟫</text>
<text x="163.0" y="116.0" text-anchor="middle" dominant-baseline="middle" font-size="12">🟫</text>
<rect x="156" y="125" width="14" height="14" fill="#19654F" rx="2" />
<text x="180.0" y="31.0" text-anchor="middle" dominant-baseline="middle" font-size="12">🟫</text>
<text x="180.0" y="48.0" text-anchor="middle" dominant-baseline="middle" font-size="12">🟫</text>
<text x="180.0" y="65.0" text-anchor="middle" dominant-baseline="middle" font-size="12">🟫</text>
<text x="180.0" y="82.0" text-anchor="middle" dominant-baseline="middle" font-size="12">🟫</text>
<text x="180.0" y="99.0" text-anchor="middle" dominant-baseline="middle" font-size="12">🟫</text>
<text x="180.0" y="116.0" text-anchor="middle" dominant-baseline="middle" font-size="12">🟫</text>
<text x="180.0" y="133.0" text-anchor="middle" dominant-baseline="middle" font-size="12">🟫</text>
<text x="197.0" y="31.0" text-anchor="middle" dominant-baseline="middle" font-size="12">🟫</text>
<text x="197.0" y="48.0" text-anchor="middle" dominant-baseline="middle" font-size="12">🟫</text>
<rect x="190" y="57" width="14" height="14" fill="#0E4429" rx="2" />
<text x="197.0" y="82.0" text-anchor="middle" dominant-baseline="middle" font-size="12">🟫</text>
<text x="197.0" y="99.0" text-anchor="middle" dominant-baseline="middle" font-size="12">🟫</text>
<text x="197.0" y="116.0" text-anchor="middle" dominant-baseline="middle" font-size="12">🟫</text>
<text x="197.0" y="133.0" text-anchor="middle" dominant-baseline="middle" font-size="12">🟫</text>
<rect x="207" y="23" width="14" height="14" fill="#19654F" rx="2" />
<text x="214.0" y="48.0" text-anchor="middle" dominant-baseline="middle" font-size="12">🟫</text>
<text x="214.0" y="65.0" text-anchor="middle" dominant-baseline="middle" font-size="12">🟫</text>
<text x="214.0" y="82.0" text-anchor="middle" dominant-baseline="middle" font-size="12">🟫</text>
<text x="214.0" y="99.0" text-anchor="middle" dominant-baseline="middle" font-size="12">🟫</text>
<text x="214.0" y="116.0" text-anchor="middle" dominant-baseline="middle" font-size="12">🟫</text>
<text x="214.0" y="133.0" text-anchor="middle" dominant-baseline="middle" font-size="12">🟫</text>
<text x="231.0" y="31.0" text-anchor="middle" dominant-baseline="middle" font-size="12">🟫</text>
<text x="231.0" y="48.0" text-anchor="middle" dominant-baseline="middle" font-size="12">🟫</text>
<text x="231.0" y="65.0" text-anchor="middle" dominant-baseline="middle" font-size="12">🟫</text>
<text x="231.0" y="82.0" text-anchor="middle" dominant-baseline="middle" font-size="12">🟫</text>
<text x="231.0" y="99.0" text-anchor="middle" dominant-baseline="middle" font-size="12">🟫</text>
<text x="231.0" y="116.0" text-anchor="middle" dominant-baseline="middle" font-size="12">🟫</text>
<text x="231.0" y="133.0" text-anchor="middle" dominant-baseline="middle" font-size="12">🟫</text>
<text x="248.0" y="31.0" text-anchor="middle" dominant-baseline="middle" font-size="12">🟫</text>
<text x="248.0" y="48.0" text-anchor="middle" dominant-baseline="middle" font-size="12">🟫</text>
<text x="248.0" y="65.0" text-anchor="middle" dominant-baseline="middle" font-size="12">🟫</text>
<text x="248.0" y="82.0" text-anchor="middle" dominant-baseline="middle" font-size="12">🟫</text>
<text x="248.0" y="99.0" text-anchor="middle" dominant-baseline="middle" font-size="12">🟫</text>
<rect x="241" y="108" width="14" height="14" fill="#19654F" rx="2" />
<text x="248.0" y="133.0" text-anchor="middle" dominant-baseline="middle" font-size="12">🟫</text>
<text x="265.0" y="31.0" text-anchor="middle" dominant-baseline="middle" font-size="12">🟫</text>
<text x="265.0" y="48.0" text-anchor="middle" dominant-baseline="middle" font-size="12">🟫</text>
<rect x="258" y="57" width="14" height="14" fill="#0E4429" rx="2" />
<rect x="258" y="74" width="14" height="14" fill="#0E4429" rx="2" />
<text x="265.0" y="99.0" text-anchor="middle" dominant-baseline="middle" font-size="12">🟫</text>
<text x="265.0" y="116.0" text-anchor="middle" dominant-baseline="middle" font-size="12">🟫</text>
<text x="265.0" y="133.0" text-anchor="middle" dominant-baseline="middle" font-size="12">🟫</text>
<text x="282.0" y="31.0" text-anchor="middle" dominant-baseline="middle" font-size="12">🟫</text>
<text x="282.0" y="48.0" text-anchor="middle" dominant-baseline="middle" font-size="12">🟫</text>
<text x="282.0" y="65.0" text-anchor="middle" dominant-baseline="middle" font-size="12">🟫</text>
<text x="282.0" y="82.0" text-anchor="middle" dominant-baseline="middle" font-size="12">🟫</text>
<rect x="275" y="91" width="14" height="14" fill="#19654F" rx="2" />
<text x="282.0" y="116.0" text-anchor="middle" dominant-baseline="middle" font-size="12">🟫</text>
<text x="282.0" y="133.0" text-anchor="middle" dominant-baseline="middle" font-size="12">🟫</text>
<text x="299.0" y="31.0" text-anchor="middle" dominant-baseline="middle" font-size="12">🟫</text>
<text x="299.0" y="48.0" text-anchor="middle" dominant-baseline="middle" font-size="12">🟫</text>
<text x="299.0" y="65.0" text-anchor="middle" dominant-baseline="middle" font-size="12">🟫</text>
<text x="299.0" y="82.0" text-anchor="middle" dominant-baseline="middle" font-size="12">🟫</text>
<rect x="292" y="91" width="14" height="14" fill="#19654F" rx="2" />
<rect x="292" y="108" width="14" height="14" fill="#0E4429" rx="2" />
<text x="299.0" y="133.0" text-anchor="middle" dominant-baseline="middle" font-size="12">🟫</text>
<rect x="309" y="23" width="14" height="14" fill="#0E4429" rx="2" />
<text x="316.0" y="48.0" text-anchor="middle" dominant-baseline="middle" font-size="12">🟫</text>
<text x="316.0" y="65.0" text-anchor="middle" dominant-baseline="middle" font-size="12">🟫</text>
<text x="316.0" y="82.0" text-anchor="middle" dominant-baseline="middle" font-size="12">🟫</text>
<text x="316.0" y="99.0" text-anchor="middle" dominant-baseline="middle" font-size="12">🟫</text>
<text x="316.0" y="116.0" text-anchor="middle" dominant-baseline="middle" font-size="12">🟫</text>
<text x="316.0" y="133.0" text-anchor="middle" dominant-baseline="middle" font-size="12">🟫</text>
<rect x="326" y="23" width="14" height="14" fill="#0E4429" rx="2" />
<text x="333.0" y="48.0" text-anchor="middle" dominant-baseline="middle" font-size="12">🟫</text>
<text x="333.0" y="65.0" text-anchor="middle" dominant-baseline="middle" font-size="12">🟫</text>
<text x="333.0" y="82.0" text-anchor="middle" dominant-baseline="middle" font-size="12">🟫</text>
<text x="333.0" y="99.0" text-anchor="middle" dominant-baseline="middle" font-size="12">🟫</text>
<text x="333.0" y="116.0" text-anchor="middle" dominant-baseline="middle" font-size="12">🟫</text>
<text x="333.0" y="133.0" text-anchor="middle" dominant-baseline="middle" font-size="12">🟫</text>
<rect x="343" y="23" width="14" height="14" fill="#19654F" rx="2" />
<rect x="343" y="40" width="14" height="14" fill="#0E4429" rx="2" />
<text x="350.0" y="65.0" text-anchor="middle" dominant-baseline="middle" font-size="12">🟫</text>
<text x="350.0" y="82.0" text-anchor="middle" dominant-baseline="middle" font-size="12">🟫</text>
<text x="350.0" y="99.0" text-anchor="middle" dominant-baseline="middle" font-size="12">🟫</text>
<text x="350.0" y="116.0" text-anchor="middle" dominant-baseline="middle" font-size="12">🟫</text>
<text x="350.0" y="133.0" text-anchor="middle" dominant-baseline="middle" font-size="12">🟫</text>
<text x="367.0" y="31.0" text-anchor="middle" dominant-baseline="middle" font-size="12">🟫</text>
<text x="367.0" y="48.0" text-anchor="middle" dominant-baseline="middle" font-size="12">🟫</text>
<text x="367.0" y="65.0" text-anchor="middle" dominant-baseline="middle" font-size="12">🟫</text>
<rect x="360" y="74" width="14" height="14" fill="#0E4429" rx="2" />
<text x="367.0" y="99.0" text-anchor="middle" dominant-baseline="middle" font-size="12">🟫</text>
<text x="367.0" y="116.0" text-anchor="middle" dominant-baseline="middle" font-size="12">🟫</text>
<text x="367.0" y="133.0" text-anchor="middle" dominant-baseline="middle" font-size="12">🟫</text>
<text x="384.0" y="31.0" text-anchor="middle" dominant-baseline="middle" font-size="12">🟫</text>
<text x="384.0" y="48.0" text-anchor="middle" dominant-baseline="middle" font-size="12">🟫</text>
<text x="384.0" y="65.0" text-anchor="middle" dominant-baseline="middle" font-size="12">🟫</text>
<text x="384.0" y="82.0" text-anchor="middle" dominant-baseline="middle" font-size="12">🟫</text>
<text x="384.0" y="99.0" text-anchor="middle" dominant-baseline="middle" font-size="12">🟫</text>
<text x="384.0" y="116.0" text-anchor="middle" dominant-baseline="middle" font-size="12">🟫</text>
<text x="384.0" y="133.0" text-anchor="middle" dominant-baseline="middle" font-size="12">🟫</text>
<text x="401.0" y="31.0" text-anchor="middle" dominant-baseline="middle" font-size="12">🟫</text>
<text x="401.0" y="48.0" text-anchor="middle" dominant-baseline="middle" font-size="12">🟫</text>
<text x="401.0" y="65.0" text-anchor="middle" dominant-baseline="middle" font-size="12">🟫</text>
<rect x="394" y="74" width="14" height="14" fill="#19654F" rx="2" />
<text x="401.0" y="99.0" text-anchor="middle" dominant-baseline="middle" font-size="12">🟫</text>
<rect x="394" y="108" width="14" height="14" fill="#19654F" rx="2" />
<text x="401.0" y="133.0" text-anchor="middle" dominant-baseline="middle" font-size="12">🟫</text>
<text x="418.0" y="31.0" text-anchor="middle" dominant-baseline="middle" font-size="12">🟫</text>
<rect x="411" y="40" width="14" height="14" fill="#0E4429" rx="2" />
<text x="418.0" y="65.0" text-anchor="middle" dominant-baseline="middle" font-size="12">🟫</text>
<text x="418.0" y="82.0" text-anchor="middle" dominant-baseline="middle" font-size="12">🟫</text>
<text x="418.0" y="99.0" text-anchor="middle" dominant-baseline="middle" font-size="12">🟫</text>
<text x="418.0" y="116.0" text-anchor="middle" dominant-baseline="middle" font-size="12">🟫</text>
<text x="418.0" y="133.0" text-anchor="middle" dominant-baseline="middle" font-size="12">🟫</text>
<text x="435.0" y="31.0" text-anchor="middle" dominant-baseline="middle" font-size="12">🟫</text>
<text x="435.0" y="48.0" text-anchor="middle" dominant-baseline="middle" font-size="12">🟫</text>
<text x="435.0" y="65.0" text-anchor="middle" dominant-baseline="middle" font-size="12">🟫</text>
<rect x="428" y="74" width="14" height="14" fill="#19654F" rx="2" />
<text x="435.0" y="99.0" text-anchor="middle" dominant-baseline="middle" font-size="12">🟫</text>
<text x="435.0" y="116.0" text-anchor="middle" dominant-baseline="middle" font-size="12">🟫</text>
<text x="435.0" y="133.0" text-anchor="middle" dominant-baseline="middle" font-size="12">🟫</text>
<text x="452.0" y="31.0" text-anchor="middle" dominant-baseline="middle" font-size="12">🟫</text>
<text x="452.0" y="48.0" text-anchor="middle" dominant-baseline="middle" font-size="12">🟫</text>
<text x="452.0" y="65.0" text-anchor="middle" dominant-baseline="middle" font-size="12">🟫</text>
<text x="452.0" y="82.0" text-anchor="middle" dominant-baseline="middle" font-size="12">🟫</text>
<text x="452.0" y="99.0" text-anchor="middle" dominant-baseline="middle" font-size="12">🟫</text>
<text x="452.0" y="116.0" text-anchor="middle" dominant-baseline="middle" font-size="12">🟫</text>
<text x="452.0" y="133.0" text-anchor="middle" dominant-baseline="middle" font-size="12">🟫</text>
<text x="469.0" y="31.0" text-anchor="middle" dominant-baseline="middle" font-size="12">🟫</text>
<text x="469.0" y="48.0" text-anchor="middle" dominant-baseline="middle" font-size="12">🟫</text>
<text x="469.0" y="65.0" text-anchor="middle" dominant-baseline="middle" font-size="12">🟫</text>
<rect x="462" y="74" width="14" height="14" fill="#19654F" rx="2" />
<text x="469.0" y="99.0" text-anchor="middle" dominant-baseline="middle" font-size="12">🟫</text>
<text x="469.0" y="116.0" text-anchor="middle" dominant-baseline="middle" font-size="12">🟫</text>
<text x="469.0" y="133.0" text-anchor="middle" dominant-baseline="middle" font-size="12">🟫</text>
<rect x="479" y="23" width="14" height="14" fill="#19654F" rx="2" />
<rect x="479" y="40" width="14" height="14" fill="#0E4429" rx="2" />
<rect x="479" y="57" width="14" height="14" fill="#0E4429" rx="2" />
<text x="486.0" y="82.0" text-anchor="middle" dominant-baseline="middle" font-size="12">🟫</text>
<rect x="479" y="91" width="14" height="14" fill="#0E4429" rx="2" />
<text x="486.0" y="116.0" text-anchor="middle" dominant-baseline="middle" font-size="12">🟫</text>
<text x="486.0" y="133.0" text-anchor="middle" dominant-baseline="middle" font-size="12">🟫</text>
<text x="503.0" y="31.0" text-anchor="middle" dominant-baseline="middle" font-size="12">🟫</text>
<rect x="496" y="40" width="14" height="14" fill="#19654F" rx="2" />
<text x="503.0" y="65.0" text-anchor="middle" dominant-baseline="middle" font-size="12">🟫</text>
<text x="503.0" y="82.0" text-anchor="middle" dominant-baseline="middle" font-size="12">🟫</text>
<text x="503.0" y="99.0" text-anchor="middle" dominant-baseline="middle" font-size="12">🟫</text>
<rect x="496" y="108" width="14" height="14" fill="#0E4429" rx="2" />
<text x="503.0" y="133.0" text-anchor="middle" dominant-baseline="middle" font-size="12">🟫</text>
<text x="520.0" y="31.0" text-anchor="middle" dominant-baseline="middle" font-size="12">🟫</text>
<rect x="513" y="40" width="14" height="14" fill="#0E4429" rx="2" />
<text x="520.0" y="65.0" text-anchor="middle" dominant-baseline="middle" font-size="12">🟫</text>
<text x="520.0" y="82.0" text-anchor="middle" dominant-baseline="middle" font-size="12">🟫</text>
<text x="520.0" y="99.0" text-anchor="middle" dominant-baseline="middle" font-size="12">🟫</text>
<text x="520.0" y="116.0" text-anchor="middle" dominant-baseline="middle" font-size="12">🟫</text>
<text x="520.0" y="133.0" text-anchor="middle" dominant-baseline="middle" font-size="12">🟫</text>
<text x="537.0" y="31.0" text-anchor="middle" dominant-baseline="middle" font-size="12">🟫</text>
<text x="537.0" y="48.0" text-anchor="middle" dominant-baseline="middle" font-size="12">🟫</text>
<rect x="530" y="57" width="14" height="14" fill="#19654F" rx="2" />
<text x="537.0" y="82.0" text-anchor="middle" dominant-baseline="middle" font-size="12">🟫</text>
<text x="537.0" y="99.0" text-anchor="middle" dominant-baseline="middle" font-size="12">🟫</text>
<text x="537.0" y="116.0" text-anchor="middle" dominant-baseline="middle" font-size="12">🟫</text>
<text x="537.0" y="133.0" text-anchor="middle" dominant-baseline="middle" font-size="12">🟫</text>
<text x="554.0" y="31.0" text-anchor="middle" dominant-baseline="middle" font-size="12">🟫</text>
<text x="554.0" y="48.0" text-anchor="middle" dominant-baseline="middle" font-size="12">🟫</text>
<text x="554.0" y="65.0" text-anchor="middle" dominant-baseline="middle" font-size="12">🟫</text>
<text x="554.0" y="82.0" text-anchor="middle" dominant-baseline="middle" font-size="12">🟫</text>
<text x="554.0" y="99.0" text-anchor="middle" dominant-baseline="middle" font-size="12">🟫</text>
<text x="554.0" y="116.0" text-anchor="middle" dominant-baseline="middle" font-size="12">🟫</text>
<text x="554.0" y="133.0" text-anchor="middle" dominant-baseline="middle" font-size="12">🟫</text>
<text x="571.0" y="31.0" text-anchor="middle" dominant-baseline="middle" font-size="12">🟫</text>
<text x="571.0" y="48.0" text-anchor="middle" dominant-baseline="middle" font-size="12">🟫</text>
<text x="571.0" y="65.0" text-anchor="middle" dominant-baseline="middle" font-size="12">🟫</text>
<text x="571.0" y="82.0" text-anchor="middle" dominant-baseline="middle" font-size="12">🟫</text>
<text x="571.0" y="99.0" text-anchor="middle" dominant-baseline="middle" font-size="12">🟫</text>
<rect x="564" y="108" width="14" height="14" fill="#19654F" rx="2" />
<text x="571.0" y="133.0" text-anchor="middle" dominant-baseline="middle" font-size="12">🟫</text>
<rect x="581" y="23" width="14" height="14" fill="#0E4429" rx="2" />
<text x="588.0" y="48.0" text-anchor="middle" dominant-baseline="middle" font-size="12">🟫</text>
<text x="588.0" y="65.0" text-anchor="middle" dominant-baseline="middle" font-size="12">🟫</text>
<text x="588.0" y="82.0" text-anchor="middle" dominant-baseline="middle" font-size="12">🟫</text>
<text x="588.0" y="99.0" text-anchor="middle" dominant-baseline="middle" font-size="12">🟫</text>
<text x="588.0" y="116.0" text-anchor="middle" dominant-baseline="middle" font-size="12">🟫</text>
<text x="588.0" y="133.0" text-anchor="middle" dominant-baseline="middle" font-size="12">🟫</text>
<text x="605.0" y="31.0" text-anchor="middle" dominant-baseline="middle" font-size="12">🟫</text>
<text x="605.0" y="48.0" text-anchor="middle" dominant-baseline="middle" font-size="12">🟫</text>
<text x="605.0" y="65.0" text-anchor="middle" dominant-baseline="middle" font-size="12">🟫</text>
<text x="605.0" y="82.0" text-anchor="middle" dominant-baseline="middle" font-size="12">🟫</text>
<text x="605.0" y="99.0" text-anchor="middle" dominant-baseline="middle" font-size="12">🟫</text>
<text x="605.0" y="116.0" text-anchor="middle" dominant-baseline="middle" font-size="12">🟫</text>
<text x="605.0" y="133.0" text-anchor="middle" dominant-baseline="middle" font-size="12">🟫</text>
<text x="622.0" y="31.0" text-anchor="middle" dominant-baseline="middle" font-size="12">🟫</text>
<text x="622.0" y="48.0" text-anchor="middle" dominant-baseline="middle" font-size="12">🟫</text>
<text x="622.0" y="65.0" text-anchor="middle" dominant-baseline="middle" font-size="12">🟫</text>
<text x="622.0" y="82.0" text-anchor="middle" dominant-baseline="middle" font-size="12">🟫</text>
<text x="622.0" y="99.0" text-anchor="middle" dominant-baseline="middle" font-size="12">🟫</text>
<rect x="615" y="108" width="14" height="14" fill="#19654F" rx="2" />
<text x="622.0" y="133.0" text-anchor="middle" dominant-baseline="middle" font-size="12">🟫</text>
<text x="639.0" y="31.0" text-anchor="middle" dominant-baseline="middle" font-size="12">🟫</text>
<text x="639.0" y="48.0" text-anchor="middle" dominant-baseline="middle" font-size="12">🟫</text>
<text x="639.0" y="65.0" text-anchor="middle" dominant-baseline="middle" font-size="12">🟫</text>
<text x="639.0" y="82.0" text-anchor="middle" dominant-baseline="middle" font-size="12">🟫</text>
<rect x="632" y="91" width="14" height="14" fill="#0E4429" rx="2" />
<text x="639.0" y="116.0" text-anchor="middle" dominant-baseline="middle" font-size="12">🟫</text>
<text x="639.0" y="133.0" text-anchor="middle" dominant-baseline="middle" font-size="12">🟫</text>
<text x="656.0" y="31.0" text-anchor="middle" dominant-baseline="middle" font-size="12">🟫</text>
<text x="656.0" y="48.0" text-anchor="middle" dominant-baseline="middle" font-size="12">🟫</text>
<text x="656.0" y="65.0" text-anchor="middle" dominant-baseline="middle" font-size="12">🟫</text>
<text x="656.0" y="82.0" text-anchor="middle" dominant-baseline="middle" font-size="12">🟫</text>
<rect x="649" y="91" width="14" height="14" fill="#19654F" rx="2" />
<text x="656.0" y="116.0" text-anchor="middle" dominant-baseline="middle" font-size="12">🟫</text>
<text x="656.0" y="133.0" text-anchor="middle" dominant-baseline="middle" font-size="12">🟫</text>
<rect x="666" y="23" width="14" height="14" fill="#0E4429" rx="2" />
<rect x="666" y="40" width="14" height="14" fill="#19654F" rx="2" />
<text x="673.0" y="65.0" text-anchor="middle" dominant-baseline="middle" font-size="12">🟫</text>
<text x="673.0" y="82.0" text-anchor="middle" dominant-baseline="middle" font-size="12">🟫</text>
<text x="673.0" y="99.0" text-anchor="middle" dominant-baseline="middle" font-size="12">🟫</text>
<text x="673.0" y="116.0" text-anchor="middle" dominant-baseline="middle" font-size="12">🟫</text>
<text x="673.0" y="133.0" text-anchor="middle" dominant-baseline="middle" font-size="12">🟫</text>
<text x="690.0" y="31.0" text-anchor="middle" dominant-baseline="middle" font-size="12">🟫</text>
<text x="690.0" y="48.0" text-anchor="middle" dominant-baseline="middle" font-size="12">🟫</text>
<text x="690.0" y="65.0" text-anchor="middle" dominant-baseline="middle" font-size="12">🟫</text>
<text x="690.0" y="82.0" text-anchor="middle" dominant-baseline="middle" font-size="12">🟫</text>
<text x="690.0" y="99.0" text-anchor="middle" dominant-baseline="middle" font-size="12">🟫</text>
<rect x="683" y="108" width="14" height="14" fill="#0E4429" rx="2" />
<text x="690.0" y="133.0" text-anchor="middle" dominant-baseline="middle" font-size="12">🟫</text>
<text x="707.0" y="31.0" text-anchor="middle" dominant-baseline="middle" font-size="12">🟫</text>
<rect x="700" y="40" width="14" height="14" fill="#0E4429" rx="2" />
<text x="707.0" y="65.0" text-anchor="middle" dominant-baseline="middle" font-size="12">🟫</text>
<text x="707.0" y="82.0" text-anchor="middle" dominant-baseline="middle" font-size="12">🟫</text>
<rect x="700" y="91" width="14" height="14" fill="#0E4429" rx="2" />
<text x="707.0" y="116.0" text-anchor="middle" dominant-baseline="middle" font-size="12">🟫</text>
<rect x="700" y="125" width="14" height="14" fill="#19654F" rx="2" />
<text x="724.0" y="31.0" text-anchor="middle" dominant-baseline="middle" font-size="12">🟫</text>
<text x="724.0" y="48.0" text-anchor="middle" dominant-baseline="middle" font-size="12">🟫</text>
<text x="724.0" y="65.0" text-anchor="middle" dominant-baseline="middle" font-size="12">🟫</text>
<text x="724.0" y="82.0" text-anchor="middle" dominant-baseline="middle" font-size="12">🟫</text>
<text x="724.0" y="99.0" text-anchor="middle" dominant-baseline="middle" font-size="12">🟫</text>
<text x="724.0" y="116.0" text-anchor="middle" dominant-baseline="middle" font-size="12">🟫</text>
<text x="724.0" y="133.0" text-anchor="middle" dominant-baseline="middle" font-size="12">🟫</text>
<text x="741.0" y="31.0" text-anchor="middle" dominant-baseline="middle" font-size="12">🟫</text>
<rect x="734" y="40" width="14" height="14" fill="#0E4429" rx="2" />
<text x="741.0" y="65.0" text-anchor="middle" dominant-baseline="middle" font-size="12">🟫</text>
<text x="741.0" y="82.0" text-anchor="middle" dominant-baseline="middle" font-size="12">🟫</text>
<text x="741.0" y="99.0" text-anchor="middle" dominant-baseline="middle" font-size="12">🟫</text>
<rect x="734" y="108" width="14" height="14" fill="#0E4429" rx="2" />
<text x="741.0" y="133.0" text-anchor="middle" dominant-baseline="middle" font-size="12">🟫</text>
<text x="758.0" y="31.0" text-anchor="middle" dominant-baseline="middle" font-size="12">🟫</text>
<text x="758.0" y="48.0" text-anchor="middle" dominant-baseline="middle" font-size="12">🟫</text>
<text x="758.0" y="65.0" text-anchor="middle" dominant-baseline="middle" font-size="12">🟫</text>
<text x="758.0" y="82.0" text-anchor="middle" dominant-baseline="middle" font-size="12">🟫</text>
<text x="758.0" y="99.0" text-anchor="middle" dominant-baseline="middle" font-size="12">🟫</text>
<text x="758.0" y="116.0" text-anchor="middle" dominant-baseline="middle" font-size="12">🟫</text>
<text x="758.0" y="133.0" text-anchor="middle" dominant-baseline="middle" font-size="12">🟫</text>
<text x="775.0" y="31.0" text-anchor="middle" dominant-baseline="middle" font-size="12">🟫</text>
<text x="775.0" y="48.0" text-anchor="middle" dominant-baseline="middle" font-size="12">🟫</text>
<rect x="768" y="57" width="14" height="14" fill="#19654F" rx="2" />
<text x="775.0" y="82.0" text-anchor="middle" dominant-baseline="middle" font-size="12">🟫</text>
<text x="775.0" y="99.0" text-anchor="middle" dominant-baseline="middle" font-size="12">🟫</text>
<text x="775.0" y="116.0" text-anchor="middle" dominant-baseline="middle" font-size="12">🟫</text>
<text x="775.0" y="133.0" text-anchor="middle" dominant-baseline="middle" font-size="12">🟫</text>
<text x="792.0" y="31.0" text-anchor="middle" dominant-baseline="middle" font-size="12">🟫</text>
<text x="792.0" y="48.0" text-anchor="middle" dominant-baseline="middle" font-size="12">🟫</text>
<text x="792.0" y="65.0" text-anchor="middle" dominant-baseline="middle" font-size="12">🟫</text>
<rect x="785" y="74" width="14" height="14" fill="#19654F" rx="2" />
<text x="792.0" y="99.0" text-anchor="middle" dominant-baseline="middle" font-size="12">🟫</text>
<text x="792.0" y="116.0" text-anchor="middle" dominant-baseline="middle" font-size="12">🟫</text>
<text x="792.0" y="133.0" text-anchor="middle" dominant-baseline="middle" font-size="12">🟫</text>
<text x="809.0" y="31.0" text-anchor="middle" dominant-baseline="middle" font-size="12">🟫</text>
<rect x="802" y="40" width="14" height="14" fill="#0E4429" rx="2" />
<text x="809.0" y="65.0" text-anchor="middle" dominant-baseline="middle" font-size="12">🟫</text>
<text x="809.0" y="82.0" text-anchor="middle" dominant-baseline="middle" font-size="12">🟫</text>
<text x="809.0" y="99.0" text-anchor="middle" dominant-baseline="middle" font-size="12">🟫</text>
<text x="809.0" y="116.0" text-anchor="middle" dominant-baseline="middle" font-size="12">🟫</text>
<text x="809.0" y="133.0" text-anchor="middle" dominant-baseline="middle" font-size="12">🟫</text>
<rect x="819" y="23" width="14" height="14" fill="#0E4429" rx="2" />
<text x="826.0" y="48.0" text-anchor="middle" dominant-baseline="middle" font-size="12">🟫</text>
<rect x="819" y="57" width="14" height="14" fill="#0E4429" rx="2" />
<text x="826.0" y="82.0" text-anchor="middle" dominant-baseline="middle" font-size="12">🟫</text>
<text x="826.0" y="99.0" text-anchor="middle" dominant-baseline="middle" font-size="12">🟫</text>
<text x="826.0" y="116.0" text-anchor="middle" dominant-baseline="middle" font-size="12">🟫</text>
<text x="826.0" y="133.0" text-anchor="middle" dominant-baseline="middle" font-size="12">🟫</text>
<text x="843.0" y="31.0" text-anchor="middle" dominant-baseline="middle" font-size="12">🟫</text>
<text x="843.0" y="48.0" text-anchor="middle" dominant-baseline="middle" font-size="12">🟫</text>
<text x="843.0" y="65.0" text-anchor="middle" dominant-baseline="middle" font-size="12">🟫</text>
<text x="843.0" y="82.0" text-anchor="middle" dominant-baseline="middle" font-size="12">🟫</text>
<text x="843.0" y="99.0" text-anchor="middle" dominant-baseline="middle" font-size="12">🟫</text>
<text x="843.0" y="116.0" text-anchor="middle" dominant-baseline="middle" font-size="12">🟫</text>
<rect x="836" y="125" width="14" height="14" fill="#0E4429" rx="2" />
<text x="860.0" y="31.0" text-anchor="middle" dominant-baseline="middle" font-size="12">🟫</text>
<text x="860.0" y="48.0" text-anchor="middle" dominant-baseline="middle" font-size="12">🟫</text>
<text x="860.0" y="65.0" text-anchor="middle" dominant-baseline="middle" font-size="12">🟫</text>
<text x="860.0" y="82.0" text-anchor="middle" dominant-baseline="middle" font-size="12">🟫</text>
<text x="860.0" y="99.0" text-anchor="middle" dominant-baseline="middle" font-size="12">🟫</text>
<text x="860.0" y="116.0" text-anchor="middle" dominant-baseline="middle" font-size="12">🟫</text>
<text x="860.0" y="133.0" text-anchor="middle" dominant-baseline="middle" font-size="12">🟫</text>
<text x="877.0" y="31.0" text-anchor="middle" dominant-baseline="middle" font-size="12">🟫</text>
<text x="877.0" y="48.0" text-anchor="middle" dominant-baseline="middle" font-size="12">🟫</text>
<text x="877.0" y="65.0" text-anchor="middle" dominant-baseline="middle" font-size="12">🟫</text>
<text x="877.0" y="82.0" text-anchor="middle" dominant-baseline="middle" font-size="12">🟫</text>
<text x="877.0" y="99.0" text-anchor="middle" dominant-baseline="middle" font-size="12">🟫</text>
<text x="877.0" y="116.0" text-anchor="middle" dominant-baseline="middle" font-size="12">🟫</text>
<text x="877.0" y="133.0" text-anchor="middle" dominant-baseline="middle" font-size="12">🟫</text>
<text x="894.0" y="31.0" text-anchor="middle" dominant-baseline="middle" font-size="12">🟫</text>
<text x="894.0" y="48.0" text-anchor="middle" dominant-baseline="middle" font-size="12">🟫</text>
<text x="894.0" y="65.0" text-anchor="middle" dominant-baseline="middle" font-size="12">🟫</text>
<text x="894.0" y="82.0" text-anchor="middle" dominant-baseline="middle" font-size="12">🟫</text>
<text x="894.0" y="99.0" text-anchor="middle" dominant-baseline="middle" font-size="12">🟫</text>
<text x="894.0" y="116.0" text-anchor="middle" dominant-baseline="middle" font-size="12">🟫</text>
<text x="894.0" y="133.0" text-anchor="middle" dominant-baseline="middle" font-size="12">🟫</text>
<text x="452.0" y="140" text-anchor="middle" fill="#6e7681" font-size="9" font-family="sans-serif">Generated by garden_gen.py</text>
</svg>